<!-- Generated by IcoMoon.io -->
<svg version="1.1" xmlns="http://www.w3.org/2000/svg" width="14" height="14" viewBox="0 0 14 14" fill="current">
<title>heart-o</title>
<path d="M13 4.656c0-2.195-1.484-2.656-2.734-2.656-1.164 0-2.477 1.258-2.883 1.742-0.187 0.227-0.578 0.227-0.766 0-0.406-0.484-1.719-1.742-2.883-1.742-1.25 0-2.734 0.461-2.734 2.656 0 1.43 1.445 2.758 1.461 2.773l4.539 4.375 4.531-4.367c0.023-0.023 1.469-1.352 1.469-2.781zM14 4.656c0 1.875-1.719 3.445-1.789 3.516l-4.867 4.687c-0.094 0.094-0.219 0.141-0.344 0.141s-0.25-0.047-0.344-0.141l-4.875-4.703c-0.062-0.055-1.781-1.625-1.781-3.5 0-2.289 1.398-3.656 3.734-3.656 1.367 0 2.648 1.078 3.266 1.688 0.617-0.609 1.898-1.688 3.266-1.688 2.336 0 3.734 1.367 3.734 3.656z" fill="current"></path>
</svg>
