<svg width="157" height="227" viewBox="0 0 157 227" fill="none" xmlns="http://www.w3.org/2000/svg">
<path d="M16.9969 213.015C25.3086 204.689 31.6913 197.585 31.2531 197.147C30.8149 196.71 23.7217 203.105 15.41 211.431C7.09832 219.756 0.715579 226.86 1.15378 227.298C1.59198 227.735 8.68518 221.341 16.9969 213.015Z" fill="#FFDA00"/>
<path d="M15.2426 212.978C23.5772 221.283 30.6881 227.661 31.1251 227.222C31.5622 226.783 25.1601 219.695 16.8255 211.39C8.49089 203.084 1.38004 196.707 0.942959 197.146C0.505874 197.584 6.90806 204.673 15.2426 212.978Z" fill="#FFDA00"/>
<path d="M118.68 39.8026C118.68 61.665 117.559 79.6033 116.438 79.6033C115.316 79.6033 114.195 61.665 114.195 39.8026C114.195 17.9403 115.316 0.00195313 116.438 0.00195313C117.559 0.00195313 118.68 17.9403 118.68 39.8026Z" fill="#FFDA00"/>
<path d="M116.435 42.0451C138.417 42.0451 156.236 41.0412 156.236 39.8028C156.236 38.5645 138.417 37.5605 116.435 37.5605C94.4541 37.5605 76.6348 38.5645 76.6348 39.8028C76.6348 41.0412 94.4541 42.0451 116.435 42.0451Z" fill="#FFDA00"/>
</svg>
